<svg height="503" viewBox="0 0 503 503" width="503" xmlns="http://www.w3.org/2000/svg" xmlns:xlink="http://www.w3.org/1999/xlink"><defs><path id="a" d="m3.5 7c1.933 0 3.5-1.567 3.5-3.5s-1.567-3.5-3.5-3.5-3.5 1.567-3.5 3.5 1.567 3.5 3.5 3.5z" fill-rule="evenodd"/><path id="b" d="m12.5 25.5c7.1797 0 13-5.8203 13-13h-1c0 6.6274-5.3726 12-12 12zm13-13c0-7.1797-5.8203-13-13-13v1c6.6274 0 12 5.37258 12 12zm-13-13c-7.1797 0-13 5.8203-13 13h1c0-6.62742 5.37258-12 12-12zm-13 13c0 7.1797 5.8203 13 13 13v-1c-6.62742 0-12-5.3726-12-12z"/><path id="c" d="m4 8c2.20914 0 4-1.79086 4-4s-1.79086-4-4-4-4 1.79086-4 4 1.79086 4 4 4z" fill-rule="evenodd"/><path id="d" d="m5.5 11c3.03757 0 5.5-2.46243 5.5-5.5s-2.46243-5.5-5.5-5.5-5.5 2.46243-5.5 5.5 2.46243 5.5 5.5 5.5z" fill-rule="evenodd"/><path id="e" d="m17.5 35.5c9.9411 0 18-8.0589 18-18h-1c0 9.3888-7.6112 17-17 17zm18-18c0-9.94113-8.0589-18-18-18v1c9.3888 0 17 7.61116 17 17zm-18-18c-9.94113 0-18 8.05887-18 18h1c0-9.38884 7.61116-17 17-17zm-18 18c0 9.9411 8.05887 18 18 18v-1c-9.38884 0-17-7.6112-17-17z"/></defs><g fill="#979797" opacity=".2"><path d="m433 111 .494-.077-.085-.542-.531.134zm-433 109-.122058-.485.0495009.98zm225 33-.073.495.475.069.089-.471zm247.494 106.923-39-249-.988.154 39 249zm-39.616-249.408-433.000058 109 .244116.97 432.999942-109zm-432.9505571 109.98 224.9995571 33 .146-.99-225.0004429-33zm225.5635571 32.598 48-252.9998009-.982-.1863982-48 253.0001991z" transform="translate(18 3)"/><path d="m76 360-.4721.165.4638 1.33.4786-1.325zm-76.472131-217.835 76.000031 218 .9442-.33-75.999969-218zm76.942431 218.005 129.9997-360.000178-.94-.339644-130.0003 359.999822z" transform="translate(244 114)"/><path d="m0 145-.391749-.311-.427075.539.643803.24zm114.608-145.310697-114.999749 144.999697.783498.622 115.000251-145.000303zm-114.783021 145.778697 190.000021 71 .35-.936-189.999979-71z" transform="translate(129 258)"/><path d="m0 81-.258655-.4279-.386693.2337.193532.4084zm82.4518 172.786-81.999984-173.0002-.903632.4284 82.000016 172.9998zm-82.193145-172.3581 134.000345-81.000001-.518-.855798-133.999655 80.999999z" transform="translate(160 2)"/><path d="m113 180-.04.498.993.079-.53-.843zm-113-9h-.5v.462l.4603027.036zm0-171 .42347-.265845-.92347-1.471015v1.73686zm113.04 179.502-113.0003027-9-.0793946.996 112.9996973 9zm-112.54-8.502v-171h-1v171zm-.92347-170.734155 113.00047 180.000155.846-.532-112.99953-179.999845z" transform="translate(18 224)"/><path d="m271.5 0 .288-.408837-.726.649149zm199.5 364 .274.418.387-.253-.223-.405zm-168 110-.319.385.284.235.309-.202zm-303-251-.353553-.354-.388293.389.42288.35zm142-142 .327-.3786-.352-.3034-.329.3284zm290.288 31.591-160.5-112.999837-.576.817674 160.5 113.000163zm-161.226-112.350688 199.5 363.999688.876-.48-199.5-364.000312zm199.664 363.341688-168 110 .548.836 168-110zm-167.407 110.033-303.000034-251-.637932.77 302.999966 251zm-302.965447-250.261 142.000447-142.0004-.708-.7072-141.999553 141.9996zm141.319447-141.9754 328 283.0004.654-.758-328-282.9996z" transform="translate(18 1)"/><path d="m132.148 40.5225-131.999687-40.999997-.296626.954994 132.000313 41.000003z" transform="translate(29 43)"/><path d="m106 111-.362.345.148.155h.214zm132-.5h-132v1h132zm-131.638.155-106.000396-111.000315-.723208.69063 105.999604 110.999685z" transform="translate(253 254)"/><path d="m.0821995 39.4932 233.9998005-39.000003-.164-.986394-234.0001995 38.999997z" transform="translate(129 365)"/><path d="m-.430967.25351 49.999967 84.99999.862-.507-50.000033-85.00001z" transform="translate(130 404)"/></g><use fill="#c4c4c4" transform="translate(156 80)" xlink:href="#a"/><use fill="#cacaca" transform="translate(147 71)" xlink:href="#b"/><use fill="#c4c4c4" transform="translate(486 360)" xlink:href="#a"/><use fill="#cacaca" transform="translate(477 351)" xlink:href="#b"/><use fill="#c4c4c4" transform="translate(407 221)" xlink:href="#a"/><use fill="#cacaca" transform="translate(398 212)" xlink:href="#b"/><use fill="#c4c4c4" transform="translate(126 400)" xlink:href="#a"/><use fill="#cacaca" transform="translate(117 391)" xlink:href="#b"/><use fill="#c4c4c4" transform="translate(176 486)" xlink:href="#a"/><use fill="#cacaca" transform="translate(167 477)" xlink:href="#b"/><use fill="#7b7b7b" transform="translate(316 470)" xlink:href="#c"/><use fill="#7b7b7b" transform="translate(26 41)" xlink:href="#c"/><use fill="#7b7b7b" transform="translate(287)" xlink:href="#c"/><g fill="#ff7e00"><use transform="translate(13 219)" xlink:href="#d"/><use transform="translate(1 207)" xlink:href="#e"/><use transform="translate(13 389)" xlink:href="#d"/><use transform="translate(1 377)" xlink:href="#e"/><use transform="translate(353 359)" xlink:href="#d"/><use transform="translate(341 347)" xlink:href="#e"/><use transform="translate(443 109)" xlink:href="#d"/><use transform="translate(431 97)" xlink:href="#e"/></g><path d="m157.605 99.353c-10.686 42.857-54.098 68.939-96.9649 58.252-42.8496-10.685-68.93483-54.095-58.24369-96.9491 10.68109-42.8621 54.09329-68.94683 96.94779-58.26193 42.8648 10.68493 68.9478 54.09943 58.2608 96.95903z" fill="#f7931a" transform="translate(162 171)"/><path d="m157.605 99.353.486.121v-.0001zm-96.9649 58.252-.121.485h.0001zm-58.24369-96.9491.48513.121.00003-.0001zm96.94779-58.26193-.1209.48514v.00001zm57.7758 96.83803c-10.619 42.589-53.76 68.508-96.3589 57.888l-.2419.97c43.1348 10.754 86.8188-15.491 97.5718-58.616zm-96.3589 57.888c-42.5817-10.618-68.50384-53.757-57.87956-96.3431l-.97026-.2421c-10.758 43.1222 15.49042 86.8032 58.60782 97.5552zm-57.87953-96.3432c10.61433-42.5941 53.75513-68.51577 96.34173-57.89769l.2419-.97029c-43.1225-10.7517-86.806 15.49608-97.55396 58.62618zm96.34173-57.89768c42.5967 10.61808 68.5167 53.76128 57.8967 96.35288l.971.2419c10.753-43.1274-15.493-86.8134-58.6258-97.56509z" fill="#f7931a" transform="translate(162 171)"/><path d="m58.814 20.6616 3.5996-14.50364-8.7886-2.2002-3.5044 14.12144c-2.3105-.5783-4.6836-1.124-7.0415-1.6646l3.5298-14.2144-8.7837-2.2002-3.6021 14.4985c-1.9126-.4375-3.79-.87-5.6123-1.325l-12.1098-3.0854-2.3379 9.4294s6.5205 1.5012 6.3828 1.5942c3.5596.8926 4.2026 3.2588 4.0952 5.1345l-4.1001 16.5228c.2451.0628.563.1534.9136.2942l-.2905-.0728c-.2061-.052-.42-.1059-.6382-.1585l-5.7471 23.1459c-.4355 1.0862-1.5395 2.7156-4.0278 2.097.0879.1283-6.38821-1.6017-6.38821-1.6017l-4.36279 10.1058 11.437 2.864c1.2598.3171 2.5049.6433 3.7373.966l.0586.0153c.8286.2172 1.6519.4327 2.4692.6431l-3.6367 14.6694 8.7784 2.2002 3.602-14.5136c2.398.6537 4.7261 1.2572 7.0039 1.8255l-3.5893 14.4458 8.7885 2.2004 3.6367-14.6422c14.9864 2.849 26.2559 1.6998 30.9991-11.9161 3.8222-10.9632-.19-17.2871-8.0752-21.4109 5.7422-1.3302 10.0678-5.1245 11.2217-12.9622 1.5947-10.7068-6.5206-16.4624-17.6172-20.302zm-29.5122 52.138 4.8261-19.4345c.5923.1486 1.315.3115 2.1324.4959l.0268.0061c7.417 1.6717 22.6172 5.098 20.064 15.382-2.4922 10.0583-18.1651 5.8999-25.336 3.9972-.645-.1711-1.2216-.3241-1.7133-.4467zm11.4096-45.9574-4.3755 17.6266c.4136.1035.8985.2335 1.4419.3791 5.979 1.6029 19.0201 5.0989 21.292-4.0427 2.3198-9.3507-10.3554-12.1693-16.5459-13.546-.6968-.1548-1.311-.2914-1.8125-.417z" fill="#fff" fill-rule="evenodd" transform="translate(200.74 198.79)"/></svg>